<svg width="388" height="79" viewBox="0 0 388 79" fill="none" xmlns="http://www.w3.org/2000/svg">
<g filter="url(#filter0_d_1057_4839)">
<path d="M0 20V27.2157C0 32.5201 2.10714 37.6071 5.85786 41.3579L29.6421 65.1421C33.3929 68.8929 38.4799 71 43.7843 71H360C371.046 71 380 62.0457 380 51V43.7843C380 38.4799 377.893 33.3929 374.142 29.6421L350.358 5.85786C346.607 2.10714 341.52 0 336.216 0H20C8.95431 0 0 8.9543 0 20Z" fill="#161616"/>
<path d="M20 0.5H336.216C341.226 0.500023 346.037 2.42805 349.657 5.87305L350.004 6.21094L373.788 29.9961C377.445 33.653 379.5 38.6125 379.5 43.7842V51C379.5 61.7696 370.77 70.5 360 70.5H43.7842C38.7743 70.5 33.9632 68.5719 30.3428 65.127L29.9961 64.7891L6.21094 41.0039C2.55428 37.347 0.500024 32.3873 0.5 27.2158V20C0.5 9.23045 9.23045 0.5 20 0.5Z" stroke="#292929"/>
</g>
<defs>
<filter id="filter0_d_1057_4839" x="0" y="0" width="388" height="79" filterUnits="userSpaceOnUse" color-interpolation-filters="sRGB">
<feFlood flood-opacity="0" result="BackgroundImageFix"/>
<feColorMatrix in="SourceAlpha" type="matrix" values="0 0 0 0 0 0 0 0 0 0 0 0 0 0 0 0 0 0 127 0" result="hardAlpha"/>
<feOffset dx="4" dy="4"/>
<feGaussianBlur stdDeviation="2"/>
<feComposite in2="hardAlpha" operator="out"/>
<feColorMatrix type="matrix" values="0 0 0 0 0 0 0 0 0 0 0 0 0 0 0 0 0 0 0.25 0"/>
<feBlend mode="normal" in2="BackgroundImageFix" result="effect1_dropShadow_1057_4839"/>
<feBlend mode="normal" in="SourceGraphic" in2="effect1_dropShadow_1057_4839" result="shape"/>
</filter>
</defs>
</svg>
